<?xml version="1.0" standalone="no"?>
<!DOCTYPE svg PUBLIC "-//W3C//DTD SVG 20010904//EN"
 "http://www.w3.org/TR/2001/REC-SVG-20010904/DTD/svg10.dtd">
<svg version="1.0" xmlns="http://www.w3.org/2000/svg"
 width="275.000000pt" height="183.000000pt" viewBox="0 0 275.000000 183.000000"
 preserveAspectRatio="xMidYMid meet">

<g transform="translate(0.000000,183.000000) scale(0.100000,-0.100000)"
fill="#000000" stroke="none">
<path d="M0 915 l0 -915 1375 0 1375 0 0 915 0 915 -1375 0 -1375 0 0 -915z
m1125 805 c-7 -22 6 -49 49 -103 43 -53 41 -95 -7 -172 -41 -66 -45 -91 -22
-135 14 -27 14 -29 0 -24 -21 8 -45 56 -45 89 0 14 16 57 36 95 l37 70 -39 74
c-33 66 -36 78 -26 100 14 30 26 35 17 6z m475 -70 c11 -26 10 -33 -6 -56 -45
-64 -54 -81 -54 -107 0 -18 11 -39 29 -58 32 -32 18 -40 -23 -14 -58 38 -58
117 1 177 27 28 34 42 31 62 -7 35 7 33 22 -4z m207 -68 c-9 -42 -7 -60 16
-133 32 -100 35 -158 8 -190 l-19 -24 10 40 c9 35 7 53 -21 140 -33 101 -34
135 -9 191 18 39 25 27 15 -24z m-344 -193 c12 -6 45 -33 72 -59 28 -26 63
-51 80 -55 16 -3 48 -24 72 -45 41 -39 81 -57 105 -47 8 2 14 -4 14 -17 2 -24
10 -75 19 -115 4 -20 0 -32 -14 -45 -17 -16 -18 -19 -4 -47 28 -55 14 -159
-36 -271 -23 -53 -49 -102 -57 -109 -10 -8 -14 -34 -14 -85 0 -77 -13 -102
-36 -68 -13 19 -18 24 -53 55 -14 12 -17 30 -16 83 1 61 4 71 27 90 117 94
150 124 164 146 13 19 9 17 -16 -8 -134 -134 -441 -164 -629 -62 -61 34 -82
34 -26 1 51 -30 143 -59 208 -67 45 -5 57 -11 68 -31 12 -22 11 -30 -9 -63
-12 -22 -22 -52 -22 -68 0 -37 -25 -60 -48 -46 -10 6 -31 33 -49 59 -50 75
-67 89 -115 90 -42 1 -43 2 -53 46 -8 36 -11 4 -15 -176 -3 -121 -9 -228 -13
-237 -5 -9 -24 -24 -44 -33 -33 -16 -38 -16 -79 0 -47 18 -93 64 -124 125 -19
37 -20 59 -20 325 l0 286 26 24 c15 14 36 25 48 25 12 0 27 9 34 20 24 40 72
15 72 -38 0 -11 6 -25 14 -31 11 -9 15 -6 20 14 10 38 61 91 123 126 45 26 57
29 64 18 7 -12 12 -12 31 0 14 8 19 9 12 1 -9 -9 -8 -18 2 -38 14 -26 20 -163
8 -174 -5 -6 -39 2 -74 16 -11 4 -16 1 -17 -11 -3 -32 -22 -73 -38 -79 -28
-11 4 -34 47 -34 43 0 93 -21 101 -44 3 -8 17 -22 31 -31 23 -15 28 -15 74 5
28 12 58 30 68 41 15 16 19 17 37 4 32 -22 71 -18 136 15 118 59 156 151 82
194 -36 20 -36 12 -2 -27 14 -17 14 -20 -4 -33 -25 -18 -41 -18 -77 4 -24 14
-29 22 -25 45 3 21 -1 27 -14 27 -13 0 -22 -12 -29 -41 -10 -37 -9 -45 9 -70
19 -25 31 -72 14 -56 -3 4 -12 2 -19 -4 -10 -8 -24 -6 -54 10 -50 26 -50 26
-50 1 0 -29 -44 -70 -75 -70 l-27 0 6 103 c3 56 6 113 7 127 1 14 4 19 6 13 6
-16 43 -17 43 -2 0 6 9 8 20 4 31 -10 24 11 -15 41 -19 14 -32 30 -29 35 11
19 -26 8 -46 -13 -27 -29 -36 -66 -22 -89 16 -26 -3 -68 -30 -69 -4 0 -5 28
-2 63 7 73 -19 156 -55 172 -18 8 -21 18 -21 73 0 88 45 171 98 183 45 11 132
10 155 -2z m-489 -73 c4 -15 -2 -46 -14 -76 -27 -68 -25 -85 10 -130 17 -21
30 -41 30 -44 0 -11 -35 11 -68 43 -40 36 -41 73 -7 141 14 27 25 61 25 75 0
31 15 25 24 -9z m292 -464 c15 -10 25 -65 14 -82 -15 -24 -40 7 -40 51 0 39 5
45 26 31z m280 -263 c-3 -18 -2 -37 4 -43 12 -15 -24 -76 -45 -76 -18 0 -19
-5 -15 -91 1 -40 -2 -69 -9 -73 -8 -5 -11 8 -9 41 1 26 -2 72 -6 101 -6 39 -4
57 6 69 7 9 13 32 13 52 0 31 4 36 30 42 17 4 32 7 34 8 2 0 1 -13 -3 -30z"/>
<path d="M1685 1120 c-3 -5 -2 -10 4 -10 5 0 13 5 16 10 3 6 2 10 -4 10 -5 0
-13 -4 -16 -10z"/>
<path d="M1106 935 c-21 -21 -29 -74 -17 -105 9 -22 10 -20 10 22 1 34 7 53
22 67 12 11 16 21 11 25 -6 3 -17 -1 -26 -9z"/>
<path d="M908 619 c4 -192 2 -255 -8 -274 -16 -30 -7 -55 21 -55 19 0 21 4 15
31 -3 17 -6 145 -6 284 0 205 -3 254 -14 258 -11 4 -13 -36 -8 -244z"/>
</g>
</svg>
