<?xml version="1.0" standalone="no"?>
<!DOCTYPE svg PUBLIC "-//W3C//DTD SVG 20010904//EN"
 "http://www.w3.org/TR/2001/REC-SVG-20010904/DTD/svg10.dtd">
<svg version="1.0" xmlns="http://www.w3.org/2000/svg"
 width="290.000000pt" height="174.000000pt" viewBox="0 0 290.000000 174.000000"
 preserveAspectRatio="xMidYMid meet">

<g transform="translate(0.000000,174.000000) scale(0.100000,-0.100000)"
fill="#000000" stroke="none">
<path d="M771 1350 c-92 -19 -172 -90 -187 -168 -4 -22 -12 -32 -23 -31 -62 6
-116 -31 -127 -87 -4 -21 -12 -34 -21 -34 -26 0 -81 -64 -88 -102 -12 -62 43
-138 99 -138 27 0 18 15 -18 28 -47 17 -72 69 -56 117 12 38 52 75 80 75 12 0
19 11 24 38 8 56 43 84 97 81 43 -4 44 -3 50 32 24 152 235 225 369 128 23
-17 50 -46 62 -64 14 -26 31 -38 61 -46 52 -14 108 -71 125 -126 27 -91 7
-172 -55 -221 -18 -15 -33 -30 -33 -34 0 -15 19 -8 51 19 122 103 72 342 -81
383 -23 6 -41 18 -45 29 -8 26 -80 90 -119 106 -45 19 -114 25 -165 15z"/>
<path d="M2097 1350 c-82 -21 -146 -77 -168 -148 -10 -34 -15 -38 -44 -39 -47
-1 -83 -29 -96 -73 -8 -27 -20 -42 -40 -51 -56 -22 -86 -108 -58 -162 29 -57
25 -57 397 -57 376 0 386 1 435 59 88 105 27 292 -107 329 -13 4 -39 27 -57
51 -58 76 -168 114 -262 91z m-14 -268 c16 -14 24 -42 11 -42 -3 0 -17 9 -31
20 -34 27 -59 25 -88 -5 -30 -29 -32 -64 -7 -96 23 -27 79 -31 97 -6 15 21 35
22 35 3 0 -47 -101 -61 -147 -22 -54 47 -27 156 41 169 30 6 68 -3 89 -21z
m173 18 c28 0 64 -51 64 -91 0 -57 -39 -99 -94 -99 -51 0 -81 20 -96 64 -16
48 7 102 52 121 18 8 39 12 46 10 8 -3 20 -5 28 -5z m128 -142 c8 -13 6 -22
-9 -38 -12 -13 -14 -20 -6 -18 7 2 16 -3 18 -9 3 -9 -7 -13 -31 -13 -44 0 -48
19 -9 50 l28 22 -28 -7 c-29 -8 -35 3 -15 23 16 16 38 12 52 -10z"/>
<path d="M2180 1060 c-59 -59 13 -162 79 -113 38 29 41 84 5 112 -33 26 -58
27 -84 1z"/>
<path d="M623 1075 c-34 -24 -47 -76 -29 -118 17 -42 41 -57 90 -57 35 0 76
27 76 50 0 15 -9 12 -37 -10 -34 -27 -59 -25 -88 5 -32 31 -32 69 0 100 29 30
66 32 90 5 21 -24 35 -26 35 -6 0 40 -94 61 -137 31z"/>
<path d="M826 1064 c-58 -59 -14 -164 69 -164 27 0 44 8 66 29 38 39 39 87 3
130 -35 42 -98 44 -138 5z m114 -14 c43 -43 13 -130 -45 -130 -62 0 -92 91
-43 133 27 23 63 22 88 -3z"/>
<path d="M1005 950 c-3 -5 -3 -15 1 -21 4 -8 9 -7 15 2 4 7 11 10 15 6 4 -4
-2 -16 -14 -27 -31 -29 -27 -40 13 -40 19 0 35 5 35 10 0 6 -7 10 -17 10 -15
0 -15 1 1 19 9 10 14 25 10 35 -7 17 -49 22 -59 6z"/>
<path d="M500 710 l0 -90 -30 0 c-16 0 -30 -4 -30 -9 0 -6 26 -38 57 -72 l58
-62 57 64 c32 35 58 67 58 72 0 4 -18 7 -40 7 -41 0 -56 -16 -20 -22 17 -3 16
-7 -17 -46 l-36 -43 -38 37 c-44 43 -48 54 -19 54 19 0 20 7 20 90 l0 90 35 0
35 0 0 -55 c0 -30 5 -55 10 -55 6 0 10 28 10 65 l0 65 -55 0 -55 0 0 -90z"/>
<path d="M970 710 l0 -90 -30 0 c-16 0 -30 -4 -30 -8 0 -10 98 -125 110 -130
7 -3 120 121 120 132 0 3 -18 6 -40 6 -41 0 -56 -16 -20 -22 17 -3 16 -7 -17
-46 l-36 -43 -38 37 c-44 43 -48 54 -19 54 19 0 20 7 20 90 l0 90 35 0 35 0 0
-55 c0 -30 5 -55 10 -55 6 0 10 28 10 65 l0 65 -55 0 -55 0 0 -90z"/>
<path d="M1847 773 c-4 -3 -7 -42 -7 -85 0 -77 0 -78 -25 -78 -37 0 -30 -18
29 -83 l53 -57 57 60 c31 34 56 65 56 71 0 5 -13 9 -30 9 l-30 0 0 85 0 85
-48 0 c-27 0 -52 -3 -55 -7z"/>
<path d="M2290 695 c0 -83 0 -85 -24 -85 -14 0 -27 -3 -29 -8 -3 -4 20 -36 52
-71 l57 -63 56 65 c32 35 54 67 51 71 -3 3 -17 6 -30 6 -22 0 -23 3 -23 85 l0
85 -55 0 -55 0 0 -85z"/>
<path d="M737 663 c-4 -3 -7 -44 -7 -90 0 -81 0 -83 -24 -83 -14 0 -27 -4 -30
-8 -2 -4 22 -37 54 -72 l58 -65 56 60 c30 33 55 66 56 73 0 15 -66 17 -75 2
-3 -5 3 -10 14 -10 28 0 26 -8 -15 -55 l-36 -40 -39 45 c-35 40 -37 45 -19 48
17 3 20 13 22 90 l3 87 33 3 32 3 0 -55 c0 -30 5 -58 10 -61 6 -4 10 20 10 64
l0 71 -48 0 c-27 0 -52 -3 -55 -7z"/>
<path d="M2070 565 l0 -85 -30 0 c-16 0 -30 -3 -30 -7 1 -5 26 -35 56 -68 l55
-60 55 59 c30 33 54 63 54 68 0 4 -11 8 -25 8 -25 0 -25 1 -25 85 l0 85 -55 0
-55 0 0 -85z"/>
</g>
</svg>
