<?xml version="1.0" standalone="no"?>
<!DOCTYPE svg PUBLIC "-//W3C//DTD SVG 20010904//EN"
 "http://www.w3.org/TR/2001/REC-SVG-20010904/DTD/svg10.dtd">
<svg version="1.0" xmlns="http://www.w3.org/2000/svg"
 width="512.000000pt" height="512.000000pt" viewBox="0 0 512.000000 512.000000"
 preserveAspectRatio="xMidYMid meet">

<g transform="translate(0.000000,512.000000) scale(0.100000,-0.100000)"
fill="#000000" stroke="none">
<path d="M1784 4838 c-22 -24 -75 -85 -118 -136 -113 -135 -118 -137 -343
-116 -240 22 -240 22 -217 -231 20 -217 21 -214 -147 -356 -68 -58 -130 -116
-138 -130 -25 -46 -8 -72 117 -177 137 -117 146 -126 167 -176 15 -34 15 -52
0 -201 -23 -248 -26 -245 230 -226 221 16 212 20 361 -153 61 -71 121 -133
134 -138 42 -16 76 10 182 138 139 168 145 171 326 155 74 -6 136 -10 138 -8
2 1 5 342 6 756 l3 753 -110 -8 c-147 -12 -185 -10 -223 10 -17 9 -81 74 -141
145 -141 164 -158 172 -227 99z m191 -423 c110 -23 209 -77 291 -159 107 -107
156 -205 174 -349 53 -423 -359 -763 -765 -633 -201 64 -357 236 -400 441 -19
88 -19 151 0 240 67 320 382 527 700 460z"/>
<path d="M2802 4225 c-58 -25 -63 -53 -60 -330 l3 -245 295 295 295 295 -250
0 c-194 -1 -257 -4 -283 -15z"/>
<path d="M3133 2988 l-393 -393 0 -290 0 -290 -56 -29 c-220 -115 -393 -343
-460 -606 -28 -111 -26 -334 4 -450 55 -211 198 -417 373 -537 95 -66 281
-143 343 -143 14 0 130 109 373 352 l353 353 -32 15 c-61 29 -74 94 -28 140
17 17 34 20 128 20 l107 0 107 107 108 108 -14 51 c-68 257 -229 462 -468 598
l-48 27 -2 679 -3 680 -392 -392z m-466 -1880 c40 -37 30 -109 -18 -133 -35
-18 -220 -21 -252 -3 -53 28 -64 92 -22 133 23 24 30 25 146 25 112 0 125 -2
146 -22z"/>
</g>
</svg>
